# xmcd CD database file
#
# Track frame offsets:
#	150
#	16043
#	30576
#	46243
#	62700
#	79857
#	92894
#	108644
#	118505
#	141115
#	155328
#	168530
#	186603
#	200172
#	218526
#	234369
#	243023
#	259730
#	272268
#	289309
#
# Disc length: 4076 seconds
#
# Revision: 0
# Processed by: cddbd v1.5.2PL0 Copyright (c) Steve Scherf et al.
# Submitted via: CDex 1.70beta2
#
DISCID=160fea14
DTITLE=Gunhild Carling and the Carling Big Band - Harlem Joy
DYEAR=2014
DGENRE=Jazz
TTITLE0=Fire Alarm
TTITLE1=Ascona
TTITLE2=Bix Radio Rhythm
TTITLE3=Stompin' at Herräng
TTITLE4=Come Home to me Blues
TTITLE5=Trixter
TTITLE6=Springtime in St.Paul
TTITLE7=Big Apple
TTITLE8=When Dreams Come True
TTITLE9=Linger
TTITLE10=Shake, Shout and Shuffle
TTITLE11=Harlem Ghost Story
TTITLE12=Bag pipe Blues
TTITLE13=I remember Oslo
TTITLE14=Saturday night Walk
TTITLE15=Harlem Joy
TTITLE16=Rhythm Queens
TTITLE17=Parlemo Sea
TTITLE18=Amour's Empire
TTITLE19=Bllue is My Heaven
EXTD=YEAR: 2014
EXTT0=
EXTT1=
EXTT2=
EXTT3=
EXTT4=
EXTT5=
EXTT6=
EXTT7=
EXTT8=
EXTT9=
EXTT10=
EXTT11=
EXTT12=
EXTT13=
EXTT14=
EXTT15=
EXTT16=
EXTT17=
EXTT18=
EXTT19=
PLAYORDER=
